# AST/ASF file generated using VICON BodyLanguage
# -----------------------------------------------
:version 1.10
:name VICON
:units
  mass 1.0
  length 0.45
  angle deg
:documentation
   .ast/.asf automatically generated from VICON data using
   VICON BodyBuilder and BodyLanguage model FoxedUp or BRILLIANT.MOD
:root
   order TX TY TZ RX RY RZ
   axis XYZ
   position 0 0 0  
   orientation 0 0 0 
:bonedata
  begin
     id 1 
     name lhipjoint
     direction 0.537252 -0.787203 0.302774 
     length 2.29576 
     axis 0 0 0  XYZ
  end
  begin
     id 2 
     name lfemur
     direction 0.34202 -0.939693 0  
     length 7.31114  
     axis 0 0 20  XYZ
    dof rx ry rz
    limits (-160.0 20.0)
           (-70.0 70.0)
           (-60.0 70.0)
  end
  begin
     id 3 
     name ltibia
     direction 0.34202 -0.939693 0   
     length 8.36008   
     axis 0 0 20   XYZ
    dof rx
    limits (-10.0 170.0)
  end
  begin
     id 4 
     name lfoot
     direction 0.0969116 -0.266263 0.959016   
     length 2.16704   
     axis -90 7.62852e-016 20   XYZ
    dof rx rz
    limits (-45.0 90.0)
           (-70.0 20.0)
  end
  begin
     id 5 
     name ltoes
     direction 1.53563e-011 -4.21779e-011 1   
     length 1.08338   
     axis -90 7.62852e-016 20   XYZ
    dof rx
    limits (-90.0 20.0)
  end
  begin
     id 6 
     name rhipjoint
     direction -0.588228 -0.754791 0.290308   
     length 2.39434  
     axis 0 0 0  XYZ 
  end
  begin
     id 7 
     name rfemur
     direction -0.34202 -0.939693 0   
     length 7.45207   
     axis 0 0 -20   XYZ
    dof rx ry rz
    limits (-160.0 20.0)
           (-70.0 70.0)
           (-70.0 60.0)
  end
  begin
     id 8 
     name rtibia
     direction -0.34202 -0.939693 0   
     length 8.03565   
     axis 0 0 -20   XYZ
    dof rx
    limits (-10.0 170.0)
 end
 begin
     id 9 
     name rfoot
     direction -0.107009 -0.294004 0.949795   
     length 2.11509  
     axis -90 -7.62852e-016 -20   XYZ
    dof rx rz
    limits (-45.0 90.0)
           (-20.0 70.0)
  end
  begin
     id 10 
     name rtoes
     direction -1.53533e-011 -4.22004e-011 1   
     length 1.05493   
     axis -90 -7.62852e-016 -20   XYZ
    dof rx
    limits (-90.0 20.0)
  end
  begin
     id 11 
     name lowerback
     direction -0.0115208 0.997969 -0.0626515   
     length 2.03153   
     axis 0 0 0   XYZ
    dof rx ry rz
    limits (-20.0 45.0)
           (-30.0 30.0)
           (-30.0 30.0)
  end
  begin
     id 12 
     name upperback
     direction -0.00423475 0.999974 -0.00583614   
     length 2.03619   
     axis 0 0 0   XYZ
    dof rx ry rz
    limits (-20.0 45.0)
           (-30.0 30.0)
           (-30.0 30.0)
  end
  begin
     id 13 
     name thorax
     direction 0.00289429 0.999728 0.0231573   
     length 2.03921   
     axis 0 0 0   XYZ
    dof rx ry rz
    limits (-20.0 45.0)
           (-30.0 30.0)
           (-30.0 30.0)
  end
  begin
     id 14 
     name lowerneck
     direction 0.0188995 0.987777 0.154721   
     length 1.78836   
     axis 0 0 0   XYZ
    dof rx ry rz
    limits (-20.0 45.0)
           (-30.0 30.0)
           (-30.0 30.0)
  end
  begin
     id 15 
     name upperneck
     direction -0.00612612 0.992995 -0.118   
     length 1.81789   
     axis 0 0 0   XYZ
    dof rx ry rz
    limits (-20.0 45.0)
           (-30.0 30.0)
           (-30.0 30.0)
  end
  begin
     id 16
     name head
     direction -0.00420226 0.998397 -0.0564482  
     length 1.82234  
     axis 0 0 0   XYZ
    dof rx ry rz
    limits (-20.0 45.0)
           (-30.0 30.0)
           (-30.0 30.0)
  end
  begin
     id 17 
     name lclavicle
     direction 0.916488 0.396539 0.0529676  
     length 3.51732  
     axis 0 0 0   XYZ
    dof ry rz
    limits (-20.0 10.0)
           (0.0 20.0)
  end
  begin
     id 18 
     name lhumerus
     direction 1 -4.4896e-011 8.36962e-028   
     length 5.45077   
     axis 180 -30 -90   XYZ
    dof rx ry rz
    limits (-60.0 90.0)
           (-90.0 90.0)
           (-90.0 90.0)
  end
  begin
     id 19
     name lradius
     direction 1 -4.48962e-011 3.01407e-027   
     length 3.05488   
     axis 180 -30 -90   XYZ
    dof rx
    limits (-10.0 170.0)
  end
  begin
     id 20
     name lwrist
     direction 1 -4.49002e-011 4.72961e-027   
     length 1.52744   
     axis -2.72261e-015 90 90   XYZ
    dof ry
    limits (-180.0 0.0)
 end
  begin
     id 21 
     name lhand
     direction 1 -4.4899e-011 9.45681e-027   
     length 0.638818   
     axis -6.0311e-015 90 90   XYZ
    dof rx rz
    limits (-90.0 90.0)
           (-45.0 45.0)
  end
  begin
     id 22 
     name lfingers
     direction 1 -4.48871e-011 1.88632e-026   
     length 0.515032   
     axis -1.20625e-014 90 90   XYZ
    dof rx
    limits (0.0 90.0)
  end
  begin
     id 23
     name lthumb
     direction 0.707107 -6.34964e-011 0.707107   
     length 0.739485   
     axis -90 45 6.32835e-014   XYZ
    dof rx rz
    limits (-45.0 45.0)
           (-45.0 45.0)
  end
  begin
     id 24 
     name rclavicle
     direction -0.949427 0.303202 0.0815894   
     length 3.76167  
     axis 0 0 0   XYZ 
    dof ry rz
    limits (-10.0 20.0)
           (-20.0 0.0)
  end
  begin
     id 25 
     name rhumerus
     direction -1 -4.48971e-011 -6.43969e-018  
     length 4.88702   
     axis 180 30 90   XYZ
    dof rx ry rz
    limits (-90.0 60.0)
           (-90.0 90.0)
           (-90.0 90.0)
  end
  begin
     id 26 
     name rradius
     direction -1 -4.48987e-011 5.46662e-027   
     length 3.22603   
     axis 180 30 90   XYZ
    dof rx
    limits (-10.0 170.0)
  end
  begin
     id 27 
     name rwrist
     direction -1 -4.48956e-011 4.72476e-027   
     length 1.61302   
     axis -2.72261e-015 -90 -90   XYZ
    dof ry
    limits (-180.0 0.0)
  end
  begin
     id 28
     name rhand
     direction -1 -4.4889e-011 9.43571e-027   
     length 0.716293   
     axis -6.0311e-015 -90 -90   XYZ
    dof rx rz
    limits (-90.0 90.0)
           (-45.0 45.0)
  end
  begin
     id 29
     name rfingers
     direction -1 -4.48887e-011 1.88701e-026   
     length 0.577494   
     axis -1.20625e-014 -90 -90   XYZ
    dof rx
    limits (0.0 90.0)
  end
  begin
     id 30
     name rthumb
     direction -0.707107 -6.34825e-011 0.707107   
     length 0.829169   
     axis -90 -45 -6.32835e-014   XYZ
    dof rx rz
    limits (-45.0 45.0)
           (-45.0 45.0)
  end
:hierarchy
  begin
    root lhipjoint rhipjoint lowerback
    lhipjoint lfemur
    lfemur ltibia
    ltibia lfoot
    lfoot ltoes
    rhipjoint rfemur
    rfemur rtibia
    rtibia rfoot
    rfoot rtoes
    lowerback upperback
    upperback thorax
    thorax lowerneck lclavicle rclavicle
    lowerneck upperneck
    upperneck head
    lclavicle lhumerus
    lhumerus lradius
    lradius lwrist
    lwrist lhand lthumb
    lhand lfingers
    rclavicle rhumerus
    rhumerus rradius
    rradius rwrist
    rwrist rhand rthumb
    rhand rfingers
  end

#!OML:ASF F:\VICON\USERDATA\INSTALL\rory3\rory3.ASF
:FULLY-SPECIFIED
:DEGREES
371
root -0.183074 16.3866 0.0242053 234.799 99.9909 209.835
lowerback 16.4021 0.144626 2.5854
upperback 5.28703 0.954418 2.06302
thorax -3.55706 0.571797 0.520243
lowerneck -16.2223 -14.7666 -7.49657
upperneck 12.4907 -20.8461 14.3664
head 8.92016 -9.01769 3.02493
rclavicle -2.38542e-015 7.95139e-015
rhumerus 10.79 -30.9165 -66.2331
rradius 50.3579
rwrist -176.402
rhand -20.0146 -5.96418
rfingers 7.12502
rthumb 6.3257 -35.8497
lclavicle -2.38542e-015 7.95139e-015
lhumerus -39.3826 -11.634 83.6298
lradius 65.7734
lwrist 18.5686
lhand -19.6753 32.5429
lfingers 7.12502
lthumb 6.65323 62.4184
rfemur -65.2848 -18.8647 19.6585
rtibia 62.8732
rfoot -21.1703 18.8234
rtoes -20.8739
lfemur -65.8744 24.8168 -35.568
ltibia 67.0027
lfoot -19.1935 -18.3467
ltoes -7.46755
372
root -0.171173 16.4596 0.0192735 234.992 99.84 210.102
lowerback 16.0371 0.144827 2.38779
upperback 5.15454 0.899662 2.01344
thorax -3.50554 0.540104 0.59223
lowerneck -16.0754 -14.7223 -7.36162
upperneck 12.7076 -20.7989 14.1107
head 8.91518 -9.00785 2.94161
rclavicle -2.06736e-014 -1.27222e-014
rhumerus 9.57662 -29.9067 -65.4758
rradius 50.9266
rwrist -176.757
rhand -19.6684 -5.73873
rfingers 7.12502
rthumb 6.65992 -35.614
lclavicle -2.06736e-014 -1.27222e-014
lhumerus -39.4137 -11.9006 83.8433
lradius 65.652
lwrist 18.59
lhand -19.5218 31.6392
lfingers 7.12502
lthumb 6.80145 61.5099
rfemur -64.4457 -18.7633 19.5007
rtibia 61.8337
rfoot -20.7081 18.8793
rtoes -20.3947
lfemur -64.9465 24.4726 -35.2532
ltibia 65.8389
lfoot -19.137 -18.1949
ltoes -7.5894
373
root -0.153159 16.5325 0.0112253 234.124 99.644 209.36
lowerback 15.6805 0.150407 2.33751
upperback 5.07445 0.879554 2.00042
thorax -3.40048 0.527595 0.61294
lowerneck -15.9902 -14.6544 -7.30135
upperneck 12.8976 -20.7153 13.9495
head 8.92849 -8.97363 2.90071
rclavicle 8.74653e-015 -5.88403e-014
rhumerus 8.54617 -29.0255 -64.8955
rradius 51.3991
rwrist -177.152
rhand -19.7612 -5.47676
rfingers 7.12502
rthumb 6.5704 -35.3548
lclavicle 8.74653e-015 -5.88403e-014
lhumerus -39.4302 -12.0967 84.0513
lradius 65.5729
lwrist 18.5302
lhand -19.0288 30.7452
lfingers 7.12502
lthumb 7.27739 60.6001
rfemur -63.5156 -18.6012 19.5007
rtibia 60.7748
rfoot -20.2588 18.8628
rtoes -19.8001
lfemur -63.9452 24.2692 -34.7702
ltibia 64.7147
lfoot -19.0906 -18.0806
ltoes -7.56848
374
root -0.137146 16.6051 0.00375318 233.513 99.4543 208.914
lowerback 15.3163 0.137731 2.25548
upperback 5.06275 0.831779 1.97343
thorax -3.21918 0.503661 0.642022
lowerneck -16.0149 -14.6457 -7.38952
upperneck 13.1501 -20.7291 14.001
head 9.03675 -8.96166 2.92028
rclavicle -3.18055e-015 1.66979e-014
rhumerus 7.67163 -28.339 -64.5068
rradius 51.8336
rwrist -177.626
rhand -20.2788 -5.29648
rfingers 7.12502
rthumb 6.07061 -35.1895
lclavicle -3.18055e-015 1.66979e-014
lhumerus -39.3416 -12.2665 84.1552
lradius 65.5916
lwrist 18.6178
lhand -18.7895 30.6932
lfingers 7.12502
lthumb 7.50838 60.5399
rfemur -62.5526 -18.4533 19.4445
rtibia 59.7094
rfoot -19.7663 18.7835
rtoes -18.9611
lfemur -62.9395 24.0703 -34.354
ltibia 63.6222
lfoot -19.2396 -17.816
ltoes -8.86437
375
root -0.123468 16.674 -0.0017168 233.193 99.2441 208.715
lowerback 14.9278 0.0884887 2.14515
upperback 5.0075 0.729816 1.9246
thorax -3.07048 0.451481 0.673104
lowerneck -16.1353 -14.6818 -7.48687
upperneck 13.7647 -20.8387 14.0001
head 9.29163 -8.97234 2.89532
rclavicle -1.27222e-014 1.51076e-014
rhumerus 6.80981 -27.6464 -64.2666
rradius 52.3037
rwrist -177.953
rhand -20.6003 -5.2737
rfingers 7.12502
rthumb 5.76025 -35.1754
lclavicle -1.27222e-014 1.51076e-014
lhumerus -39.2465 -12.5127 84.1235
lradius 65.5211
lwrist 18.8347
lhand -18.7511 30.8842
lfingers 7.12502
lthumb 7.54535 60.7297
rfemur -61.6817 -18.3294 19.425
rtibia 58.6473
rfoot -19.384 18.5256
rtoes -18.8919
lfemur -62.0558 23.8677 -34.0224
ltibia 62.5538
lfoot -19.2814 -17.4764
ltoes -10.2216
376
root -0.108921 16.7388 -0.00815839 232.489 99.0561 208.137
lowerback 14.5433 0.0599035 2.08468
upperback 4.92124 0.661493 1.86257
thorax -2.95506 0.414917 0.655627
lowerneck -16.0379 -14.6638 -7.6006
upperneck 14.22 -20.8721 14.0826
head 9.45931 -8.96074 2.93019
rclavicle -1.90833e-014 -2.8625e-014
rhumerus 5.86414 -26.9508 -64.0375
rradius 52.7021
rwrist -178.405
rhand -20.5044 -5.31683
rfingers 7.12502
rthumb 5.85287 -35.216
lclavicle -1.90833e-014 -2.8625e-014
lhumerus -39.1891 -12.6238 84.1372
lradius 65.381
lwrist 18.8384
lhand -18.5917 30.8832
lfingers 7.12502
lthumb 7.69922 60.723
rfemur -60.8129 -18.1873 19.4457
rtibia 57.5992
rfoot -19.0281 18.3405
rtoes -18.7154
lfemur -61.2115 23.722 -33.692
ltibia 61.5023
lfoot -19.2768 -17.097
ltoes -11.0153
377
root -0.091659 16.8066 -0.0147253 231.877 98.8864 207.711
lowerback 14.165 0.0498505 2.01672
upperback 4.86873 0.617597 1.7904
thorax -2.80691 0.391355 0.627396
lowerneck -15.9009 -14.6334 -7.61402
upperneck 14.5187 -20.8733 14.0846
head 9.54086 -8.94923 2.93733
rclavicle -6.36111e-015 -1.82882e-014
rhumerus 4.90126 -26.2977 -63.7663
rradius 53.0937
rwrist -178.943
rhand -20.2461 -5.15727
rfingers 7.12502
rthumb 6.10224 -35.0494
lclavicle -6.36111e-015 -1.82882e-014
lhumerus -39.1361 -12.6743 84.1817
lradius 65.3002
lwrist 18.7557
lhand -18.4443 30.9165
lfingers 7.12502
lthumb 7.84151 60.7511
rfemur -59.856 -18.0911 19.4332
rtibia 56.5612
rfoot -18.8026 18.1258
rtoes -18.8888
lfemur -60.2639 23.5959 -33.3728
ltibia 60.4592
lfoot -19.2129 -16.777
ltoes -11.3128
378
root -0.0767573 16.8687 -0.019421 231.563 98.7219 207.6
lowerback 13.8599 0.0175537 1.85371
upperback 4.77592 0.537249 1.7617
thorax -2.74147 0.348199 0.703279
lowerneck -15.743 -14.6019 -7.67447
upperneck 14.82 -20.8347 13.951
head 9.602 -8.93707 2.91617
rclavicle 1.19271e-014 2.54444e-014
rhumerus 3.96754 -25.6148 -63.4889
rradius 53.6895
rwrist -178.759
rhand -20.4434 -4.69478
rfingers 7.12502
rthumb 5.91177 -34.5923
lclavicle 1.19271e-014 2.54444e-014
lhumerus -39.1348 -12.6338 84.2918
lradius 65.1346
lwrist 18.7538
lhand -18.2493 31.0245
lfingers 7.12502
lthumb 8.02971 60.852
rfemur -58.9271 -17.9956 19.3722
rtibia 55.5694
rfoot -18.573 17.9173
rtoes -18.9768
lfemur -59.2958 23.4543 -33.0914
ltibia 59.4328
lfoot -19.1832 -16.5414
ltoes -11.445
379
root -0.0621638 16.9247 -0.0223818 230.865 98.559 207.104
lowerback 13.5715 -0.011328 1.6475
upperback 4.68286 0.459116 1.76939
thorax -2.68513 0.305872 0.840598
lowerneck -15.6756 -14.5633 -7.74723
upperneck 15.2064 -20.7894 13.8066
head 9.70845 -8.91381 2.88746
rclavicle 1.35174e-014 4.6118e-014
rhumerus 3.12933 -24.8778 -63.2568
rradius 54.2389
rwrist -178.471
rhand -20.7035 -4.42016
rfingers 7.12502
rthumb 5.66065 -34.3245
lclavicle 1.35174e-014 4.6118e-014
lhumerus -39.1446 -12.5162 84.4009
lradius 64.9761
lwrist 18.7541
lhand -17.8811 31.2229
lfingers 7.12502
lthumb 8.38512 61.0365
rfemur -58.0078 -17.8018 19.3155
rtibia 54.5968
rfoot -18.3265 17.6715
rtoes -18.5966
lfemur -58.3739 23.4129 -32.8066
ltibia 58.4406
lfoot -19.2165 -16.3201
ltoes -11.486
380
root -0.0456875 16.9802 -0.0242208 230.259 98.3961 206.713
lowerback 13.2763 -0.0195069 1.43629
upperback 4.59346 0.408014 1.76736
thorax -2.62048 0.27697 0.965963
lowerneck -15.6118 -14.5578 -7.79923
upperneck 15.6218 -20.7971 13.6601
head 9.82981 -8.91227 2.84478
rclavicle 7.95139e-016 3.57812e-014
rhumerus 2.23789 -24.1459 -63.018
rradius 54.6905
rwrist -178.451
rhand -20.6233 -4.3539
rfingers 7.12502
rthumb 5.73806 -34.2562
lclavicle 7.95139e-016 3.57812e-014
lhumerus -39.1354 -12.4457 84.5162
lradius 64.8636
lwrist 18.7354
lhand -17.7778 31.1747
lfingers 7.12502
lthumb 8.48476 60.9842
rfemur -57.0714 -17.5909 19.2399
rtibia 53.6369
rfoot -18.0839 17.3681
rtoes -18.3637
lfemur -57.4469 23.3338 -32.508
ltibia 57.4515
lfoot -19.2131 -16.086
ltoes -10.8534
